{"title":"The.Blast.From.The.Past.[1999].DvdRip.XviD-KnÃƒÂ£","uid":6356507,"size":734054400,"categoryP":"video","categoryS":"movies","magnet":"?xt=urn:btih:9fd3ccfdb703a572607da0ba619cd4d338395b6b&amp;dn=The.Blast.From.The.Past.%5B1999%5D.DvdRip.XviD-Kn%C3%83%C2%A3&amp;tr=udp%3A%2F%2Ftracker.openbittorrent.com%3A80&amp;tr=udp%3A%2F%2Fopen.demonii.com%3A1337&amp;tr=udp%3A%2F%2Ftracker.coppersurfer.tk%3A6969&amp;tr=udp%3A%2F%2Fexodus.desync.com%3A6969","seeders":4,"leechers":0,"uploader":"Jon.Pson","files":1,"time":1304164609,"description":"A romantic comedy about a naive man who comes out into the world after being in a nuclear fallout shelter for 35 years.\n\n\nGeneral\nComplete name                    : H:\\Movies\\The.Blast.From.The.Past.[1999].DvdRip.XviD-KnÃƒÂ£\\The.Blast.From.The.Past.[1999].DvdRip.XviD-KnÃƒÂ£.avi\nFormat                           : AVI\nFormat/Info                      : Audio Video Interleave\nFile size                        : 700 MiB\nDuration                         : 1h 38mn\nOverall bit rate                 : 993 Kbps\nWriting application              : VirtualDubMod 1.5.4.1 (build 2178/release)\nWriting library                  : VirtualDubMod build 2178/release\n\nVideo\nID                               : 0\nFormat                           : MPEG-4 Visual\nFormat profile                   : Advanced Simple@L5\nFormat settings, BVOP            : Yes\nFormat settings, QPel            : No\nFormat settings, GMC             : No warppoints\nFormat settings, Matrix          : Default (H.263)\nMuxing mode                      : Packed bitstream\nCodec ID                         : XVID\nCodec ID/Hint                    : XviD\nDuration                         : 1h 38mn\nBit rate                         : 868 Kbps\nWidth                            : 608 pixels\nHeight                           : 256 pixels\nDisplay aspect ratio             : 2.35:1\nFrame rate                       : 25.000 fps\nColor space                      : YUV\nChroma subsampling               : 4:2:0\nBit depth                        : 8 bits\nScan type                        : Progressive\nBits/(Pixel*Frame)               : 0.223\nStream size                      : 612 MiB (87%)\nWriting library                  : XviD 58\n\nAudio\nID                               : 1\nFormat                           : MPEG Audio\nFormat version                   : Version 1\nFormat profile                   : Layer 3\nMode                             : Joint stereo\nMode extension                   : MS Stereo\nCodec ID                         : 55\nCodec ID/Hint                    : MP3\nDuration                         : 1h 38mn\nBit rate mode                    : Variable\nBit rate                         : 112 Kbps\nChannel(s)                       : 2 channels\nSampling rate                    : 48.0 KHz\nStream size                      : 79.0 MiB (11%)\nAlignment                        : Aligned on interleaves\nInterleave, duration             : 24 ms (0.60 video frame)\nInterleave, preload duration     : 548 ms\nLanguage                         : English\n\n","torrent":{"xt":"urn:btih:9fd3ccfdb703a572607da0ba619cd4d338395b6b","amp;dn":"The.Blast.From.The.Past.%5B1999%5D.DvdRip.XviD-Kn%C3%83%C2%A3","amp;tr":["udp%3A%2F%2Ftracker.openbittorrent.com%3A80","udp%3A%2F%2Fopen.demonii.com%3A1337","udp%3A%2F%2Ftracker.coppersurfer.tk%3A6969","udp%3A%2F%2Fexodus.desync.com%3A6969"],"infoHash":"9fd3ccfdb703a572607da0ba619cd4d338395b6b","infoHashBuffer":{"type":"Buffer","data":[159,211,204,253,183,3,165,114,96,125,160,186,97,156,212,211,56,57,91,107]},"announce":[],"urlList":[]}}